# xmcd
#
# Track frame offsets:
#	150
#	14242
#	30848
#	47191
#	62635
#	75628
#	89243
#	105867
#	121250
#	138899
#
# Disc length: 2048 seconds
# Revision: 0
# Processed by: cddbd v1.5.2PL0 Copyright (c) Steve Scherf et al.
# Submitted via: dBpowerAMP V12.0
#
DISCID=7b07fe0a
DTITLE=Dawson Reigns - Enjoy The Ride
DYEAR=2010
DGENRE=Country
TTITLE0=If Crazy Wasn't So Beautiful
TTITLE1=Girl Next Door
TTITLE2=Someone Watching Over Me
TTITLE3=Enjoy The Ride
TTITLE4=Hell Of A Time
TTITLE5=That Ain't Gonna Fly
TTITLE6=Lighter
TTITLE7=Wreck Me
TTITLE8=Empty Handed
TTITLE9=Raise' em Up
EXTD=
EXTT0=
EXTT1=
EXTT2=
EXTT3=
EXTT4=
EXTT5=
EXTT6=
EXTT7=
EXTT8=
EXTT9=
PLAYORDER=
